#format: frame checksums
#version: 2
#hash: MD5
#tb 0: 1001/30000
#media_type 0: video
#codec_id 0: rawvideo
#dimensions 0: 210x202
#sar 0: 1/1
#stream#, dts,        pts, duration,     size, hash
0,          0,          0,        1,    63630, 5d01848aee2b324f2e356627f9c39532
0,          1,          1,        1,    63630, b671fe34bc0e5a682baff929d26ea627
0,          2,          2,        1,    63630, e9a40f87ca5aaa5af9772e286feb9063
0,          3,          3,        1,    63630, 4730f60d4c856e8ad877c0d8b1729ec4
0,          4,          4,        1,    63630, 317fc01349e0984c23d15f97a3a0f442
0,          5,          5,        1,    63630, aea89116ffe48340d1752d1ad5195529
0,          6,          6,        1,    63630, 14694ba65b6308e5f5571486b62ca1cc
0,          7,          7,        1,    63630, 53c6102d877c9a30eaa20ddc45207ea0
0,          8,          8,        1,    63630, 7d1e898b1bead878224e8ff15d624bd9
0,          9,          9,        1,    63630, 37b684bfae5dbd33e8dbb8332b94ce8a
